<?xml version="1.0" encoding="UTF-8" standalone="no" ?>
<!DOCTYPE svg PUBLIC "-//W3C//DTD SVG 1.1//EN" "http://www.w3.org/Graphics/SVG/1.1/DTD/svg11.dtd">
<svg xmlns="http://www.w3.org/2000/svg" xmlns:xlink="http://www.w3.org/1999/xlink" version="1.1" width="1000" height="1000" viewBox="0 0 1000 1000" xml:space="preserve">
<desc>Created with Fabric.js 5.3.0</desc>
<defs>
</defs>
<g transform="matrix(1 0 0 1 502.6079136691 338.7847810878)" id="xg5KEkKmsf4R4rLeU_Etv"  >
<path style="stroke: rgb(0,0,0); stroke-width: 1; stroke-dasharray: none; stroke-linecap: butt; stroke-dashoffset: 0; stroke-linejoin: miter; stroke-miterlimit: 4; fill: rgb(255,255,255); fill-opacity: 0; fill-rule: nonzero; opacity: 1;"  transform=" translate(0, 0)" d="M 0 0 z" stroke-linecap="round" />
</g>
<g transform="matrix(1 0 0 1 670.2051794246 382.8629975787)" id="oGEIWd3T689Ex41kDp8TM"  >
<path style="stroke: rgb(0,0,0); stroke-width: 1; stroke-dasharray: none; stroke-linecap: butt; stroke-dashoffset: 0; stroke-linejoin: miter; stroke-miterlimit: 4; fill: rgb(255,255,255); fill-opacity: 0; fill-rule: nonzero; opacity: 1;"  transform=" translate(0, 0)" d="M 0 0" stroke-linecap="round" />
</g>
<g transform="matrix(1 0 0 1 584.2812838392 229.6349312355)" id="3aoPo-XbNBU831cM-mo6W"  >
<path style="stroke: rgb(0,0,0); stroke-width: 1; stroke-dasharray: none; stroke-linecap: butt; stroke-dashoffset: 0; stroke-linejoin: miter; stroke-miterlimit: 4; fill: rgb(255,255,255); fill-opacity: 0; fill-rule: nonzero; opacity: 1;"  transform=" translate(0, 0)" d="M 0 0" stroke-linecap="round" />
</g>
<g transform="matrix(1 0 0 1 535.804475984 405.716316903)" id="YeLGCqFPYuQkyWiI0mXmo"  >
<path style="stroke: rgb(0,0,0); stroke-width: 1; stroke-dasharray: none; stroke-linecap: butt; stroke-dashoffset: 0; stroke-linejoin: miter; stroke-miterlimit: 4; fill: rgb(255,255,255); fill-opacity: 0; fill-rule: nonzero; opacity: 1;"  transform=" translate(0, 0)" d="M 0 0 z" stroke-linecap="round" />
</g>
<g transform="matrix(1 0 0 1 500 441.7272727273)" id="j-sdW4uvVieXhP2NDVHvm"  >
<g style=""   >
		<g transform="matrix(-0.1203516193 -2.2964456989 2.2964456989 -0.1203516193 -5.9411441704 35.6485258062)" id="Kz82pYZib8rA6jeuPhUWU"  >
<path style="stroke: rgb(0,0,0); stroke-width: 0; stroke-dasharray: none; stroke-linecap: butt; stroke-dashoffset: 0; stroke-linejoin: miter; stroke-miterlimit: 4; fill: rgb(166,166,166); fill-rule: nonzero; opacity: 1;"  transform=" translate(0, 0)" d="M 0 -13.88889 C 7.66667 -13.88889 13.88889 -7.66667 13.88889 0 C 13.88889 7.66667 7.66667 13.88889 0 13.88889 C -7.66667 13.88889 -13.88889 7.66667 -13.88889 0 C -13.88889 -7.66667 -7.66667 -13.88889 0 -13.88889 z" stroke-linecap="round" />
</g>
		<g transform="matrix(0.9986295348 -0.0523359562 0.0523359562 0.9986295348 -121.5257184486 112.4050075023)" id="cp7P_QcoDBoBI5B5I_06u"  >
<path style="stroke: rgb(0,0,0); stroke-width: 0; stroke-dasharray: none; stroke-linecap: butt; stroke-dashoffset: 0; stroke-linejoin: miter; stroke-miterlimit: 4; fill: rgb(254,164,0); fill-rule: nonzero; opacity: 1;"  transform=" translate(-0.0000032589, -0.0000074711)" d="M 73.99764 -75.99718 C 73.99764 -75.99718 66.49482 -26.653480000000002 125.86513 -24.704459999999997 C 127.22220999999999 -24.659909999999996 127.57109999999999 10.379980000000003 117.07634999999999 27.921210000000002 C 106.5816 45.46244 98.21928 57.43605 84.42617999999999 65.08223000000001 C 70.63307999999999 72.72841000000001 45.22967999999999 86.22166000000001 5.131829999999994 81.42406000000001 C -34.96602000000001 76.62646000000001 -50.55823000000001 70.96279000000001 -72.59721 60.31811000000001 C -94.63619 49.67343000000001 -123.51085 34.06374000000001 -124.26047 31.96479000000001 C -124.39621 31.58473000000001 -124.00211 32.243510000000015 -124.26047 31.96479000000001 C -125.42896 30.704250000000012 -127.45501 29.66086000000001 -126.10445 20.82086000000001 C -125.61691 17.62967000000001 -119.98758 12.14397000000001 -114.71964 5.88458000000001 C -106.94151 -3.3574199999999905 -96.46314 -15.83783999999999 -90.33976 -23.02364999999999 C -86.58185 -27.43356999999999 -62.79644 -49.44449999999999 -62.79644 -49.44449999999999 C -62.79644 -49.44449999999999 -37.41580999999999 -68.00430999999999 -29.46978 -68.90386999999998 C -29.4459 -68.90656999999999 -31.4136 -68.32963999999998 -31.05686 -68.60579999999999 C -30.52174 -69.02004999999998 -27.56051 -70.35882 -27.23394 -70.493 C -22.758580000000002 -72.33182 -5.056889999999999 -79.36270999999999 -1.9825100000000013 -79.09537 C 1.4657699999999987 -78.79552 -13.226890000000001 -78.20908 9.861569999999999 -81.35751 C 23.495549999999998 -83.21669 42.79225 -82.51022 56.80081 -80.39204000000001 C 66.51503 -78.92319 73.99766 -75.99717000000001 73.99766 -75.99717000000001" stroke-linecap="round" />
</g>
		<g transform="matrix(-0.544639035 -0.8386705679 0.8386705679 -0.544639035 115.3049160461 98.757431977)" id="nA7put1gmMXAQYlVaCh9T"  >
<path style="stroke: rgb(0,0,0); stroke-width: 0; stroke-dasharray: none; stroke-linecap: butt; stroke-dashoffset: 0; stroke-linejoin: miter; stroke-miterlimit: 4; fill: rgb(1,123,61); fill-rule: nonzero; opacity: 1;"  transform=" translate(-0.0000035014, -0.0000124711)" d="M 73.7799 -75.33052 C 73.7799 -75.33052 70.94941 -54.80852000000001 83.37898 -38.985800000000005 C 90.04649 -30.498120000000007 100.28911 -23.622640000000004 118.72748 -21.791060000000005 C 120.50458 -21.614530000000006 122.89197 -22.144380000000005 124.82475 -22.080930000000006 C 126.18182999999999 -22.036380000000005 126.35337 11.046649999999996 115.85861 28.587879999999995 C 105.36386 46.12911 96.66821 56.769389999999994 82.8751 64.41556999999999 C 69.08200000000001 72.06174999999999 45.01194 85.55499999999999 4.9140799999999984 80.75739999999999 C -35.18377 75.95979999999999 -50.775980000000004 69.96279999999999 -72.81496 59.31811999999999 C -94.85394 48.67343999999999 -121.84045 34.73040999999999 -122.59007 32.63145999999999 C -122.72581 32.25139999999999 -123.16217999999999 32.25416999999999 -123.42054999999999 31.97544999999999 C -124.58904 30.714909999999993 -126.33943 29.327529999999992 -124.98886999999999 20.487529999999992 C -124.50133 17.296339999999994 -120.20532999999999 12.810639999999992 -114.93739 6.5512499999999925 C -107.15925999999999 -2.6907500000000084 -96.68088999999999 -15.171170000000007 -90.55751 -22.356980000000007 C -86.7996 -26.766900000000007 -63.01418999999999 -48.77783000000001 -63.01418999999999 -48.77783000000001 C -63.01418999999999 -48.77783000000001 -37.63355999999999 -67.33764000000001 -29.687529999999995 -68.2372 C -29.663649999999997 -68.2399 -31.631349999999994 -67.66297 -31.274609999999996 -67.93913 C -30.739489999999996 -68.35338 -27.778259999999996 -69.69215000000001 -27.451689999999996 -69.82633000000001 C -22.976329999999997 -71.66515000000001 -5.2746399999999944 -78.69604000000001 -2.2002599999999966 -78.42870000000002 C 1.2480200000000035 -78.12885000000001 -13.444639999999996 -77.54241000000002 9.643820000000003 -80.69084000000002 C 23.277800000000003 -82.55002000000002 42.57450000000001 -81.84355000000002 56.58306 -79.72537000000003 C 66.29728 -78.25652000000002 73.77991 -75.33050000000003 73.77991 -75.33050000000003" stroke-linecap="round" />
</g>
		<g transform="matrix(-0.4226182617 0.906307787 -0.906307787 -0.4226182617 -15.7283738641 -100.2364928956)" id="CJilEeb9rMAOQ_1q-pbeG"  >
<path style="stroke: rgb(0,0,0); stroke-width: 0; stroke-dasharray: none; stroke-linecap: butt; stroke-dashoffset: 0; stroke-linejoin: miter; stroke-miterlimit: 4; fill: rgb(10,54,105); fill-rule: nonzero; opacity: 1;"  transform=" translate(0.0000060877, -0.0000024711)" d="M 73.76789 -75.33052 C 73.76789 -75.33052 65.47179 -22.536570000000005 124.84209999999999 -20.587540000000004 C 126.19917999999998 -20.542990000000003 126.34134999999999 11.046639999999996 115.8466 28.587869999999995 C 105.35185 46.129099999999994 96.6562 56.76938 82.86309 64.41556 C 69.06999 72.06174 44.99993 85.55499 4.902069999999995 80.75739 C -35.195780000000006 75.95979 -50.78799000000001 69.96279 -72.82697 59.318110000000004 C -94.86595 48.67343 -121.85246000000001 34.7304 -122.60208 32.63145 C -122.73782 32.25139 -123.17419 32.25416 -123.43256 31.975440000000003 C -124.60105 30.714900000000004 -126.35144 29.327520000000003 -125.00088 20.487520000000004 C -124.51334 17.296330000000005 -120.21734 12.810630000000003 -114.9494 6.5512400000000035 C -107.17126999999999 -2.6907599999999974 -96.6929 -15.171179999999996 -90.56952 -22.356989999999996 C -86.81161 -26.766909999999996 -63.026199999999996 -48.77784 -63.026199999999996 -48.77784 C -63.026199999999996 -48.77784 -37.64556999999999 -67.33765 -29.69954 -68.23721 C -29.67566 -68.23991000000001 -31.643359999999998 -67.66298 -31.28662 -67.93914000000001 C -30.7515 -68.35339 -27.79027 -69.69216000000002 -27.4637 -69.82634000000002 C -22.98834 -71.66516000000001 -5.286649999999998 -78.69605000000001 -2.21227 -78.42871000000002 C 1.2360099999999998 -78.12886000000002 -13.45665 -77.54242000000002 9.63181 -80.69085000000003 C 23.26579 -82.55003000000002 42.562490000000004 -81.84356000000002 56.57105 -79.72538000000003 C 66.28527 -78.25653000000003 73.7679 -75.33051000000003 73.7679 -75.33051000000003" stroke-linecap="round" />
</g>
</g>
</g>
</svg>